<svg width="71" height="71" viewBox="0 0 71 71" fill="none" xmlns="http://www.w3.org/2000/svg">
<path d="M69.1125 54.3118L53.1798 38.3791C50.0368 35.2361 45.3428 34.6239 41.5603 36.4879L27.0562 21.9838V13.5345L9.64046 0.472656L0.932584 9.18053L13.9944 26.5963H22.4438L36.9478 41.1003C35.0974 44.8828 35.6961 49.5769 38.8391 52.7199L54.7718 68.6526C56.7582 70.6391 59.9693 70.6391 61.9421 68.6526L69.1125 61.4822C71.0854 59.4957 71.0854 56.2847 69.1125 54.3118ZM46.0639 31.0863C49.9144 31.0863 53.5336 32.583 56.2548 35.3042L58.8944 37.9437C61.0441 37.0049 63.085 35.6987 64.8538 33.9299C69.9017 28.8821 71.6161 21.7797 70.0105 15.3305C69.7112 14.1059 68.1737 13.6841 67.2757 14.5821L57.1528 24.705L47.9143 23.1676L46.3768 13.929L56.4997 3.80614C57.3977 2.90814 56.9623 1.37066 55.7242 1.05772C49.2749 -0.534192 42.1725 1.18017 37.1383 6.21441C33.2606 10.0921 31.4374 15.208 31.5326 20.3103L42.7032 31.4809C43.8053 31.2223 44.9482 31.0863 46.0639 31.0863ZM31.9272 42.2433L24.2125 34.5286L3.47692 55.2779C0.0754027 58.6794 0.0754027 64.1898 3.47692 67.5913C6.87843 70.9928 12.3889 70.9928 15.7904 67.5913L32.6075 50.7743C31.5734 48.0666 31.2605 45.1141 31.9272 42.2433ZM9.64046 64.6932C7.84446 64.6932 6.37501 63.2238 6.37501 61.4278C6.37501 59.6182 7.83086 58.1623 9.64046 58.1623C11.4501 58.1623 12.9059 59.6182 12.9059 61.4278C12.9059 63.2238 11.4501 64.6932 9.64046 64.6932Z" fill="black"/>
</svg>
